<?xml version="1.0" encoding="iso-8859-1"?>
<!-- Generator: Adobe Illustrator 17.1.0, SVG Export Plug-In . SVG Version: 6.00 Build 0)  -->
<!DOCTYPE svg PUBLIC "-//W3C//DTD SVG 1.1//EN" "http://www.w3.org/Graphics/SVG/1.1/DTD/svg11.dtd">
<svg version="1.1" id="svg" xmlns="http://www.w3.org/2000/svg" xmlns:xlink="http://www.w3.org/1999/xlink" x="0px" y="0px"
	 viewBox="0 0 32 32" style="enable-background:new 0 0 32 32;" xml:space="preserve">
<g>
	<g>
		<path style="fill:#FFFFFF;" d="M27.967,24.955c0,0.55-0.45,1-1,1l-20.326,0c-0.55,0-1-0.45-1-1V3.951c0-0.55,0.45-1,1-1h20.326
			c0.55,0,1,0.45,1,1V24.955z"/>
		<path style="fill:none;stroke:#818181;stroke-width:2;stroke-linecap:round;stroke-linejoin:round;stroke-miterlimit:10;" d="
			M27.967,24.955c0,0.55-0.45,1-1,1l-20.326,0c-0.55,0-1-0.45-1-1V3.951c0-0.55,0.45-1,1-1h20.326c0.55,0,1,0.45,1,1V24.955z"/>
	</g>
	<g>
		<path style="fill:#89DFE5;" d="M6.546,2.022c-1.378,0-2.495,1.117-2.495,2.495v22.021h4.991V4.517
			C9.041,3.139,7.924,2.022,6.546,2.022z"/>
		<path style="fill:none;stroke:#818181;stroke-width:2;stroke-linecap:round;stroke-linejoin:round;stroke-miterlimit:10;" d="
			M6.546,2.022c-1.378,0-2.495,1.117-2.495,2.495v22.021h4.991V4.517C9.041,3.139,7.924,2.022,6.546,2.022z"/>
	</g>
	<g>
		<path style="fill:#BABFBD;" d="M9.501,26.004c-0.55,0-1.346-0.287-1.769-0.639c0,0-0.389-0.322-1.185-0.322
			c-1.378,0-2.495,1.117-2.495,2.495c0,1.378,1.581,2.086,1.581,2.086c0.502,0.225,1.363,0.409,1.913,0.409l2,0c0.55,0,1.45,0,2,0
			h11.455c0.55,0,1-0.45,1-1v-2.029c0-0.55-0.45-1-1-1H9.501z"/>
		<path style="fill:none;stroke:#818181;stroke-width:2;stroke-linecap:round;stroke-linejoin:round;stroke-miterlimit:10;" d="
			M9.501,26.004c-0.55,0-1.346-0.287-1.769-0.639c0,0-0.389-0.322-1.185-0.322c-1.378,0-2.495,1.117-2.495,2.495
			c0,1.378,1.581,2.086,1.581,2.086c0.502,0.225,1.363,0.409,1.913,0.409l2,0c0.55,0,1.45,0,2,0h11.455c0.55,0,1-0.45,1-1v-2.029
			c0-0.55-0.45-1-1-1H9.501z"/>
	</g>
</g>
<path style="fill:#FF9999;stroke:#818181;stroke-width:1.5;stroke-linejoin:round;stroke-miterlimit:10;" d="M18.501,13.077
	c0-1.567-1.27-2.836-2.836-2.836s-2.836,1.27-2.836,2.836c0,0.786,0.32,1.498,0.837,2.012l4.836,4.836l4.836-4.836
	c0.517-0.514,0.837-1.225,0.837-2.011c0-1.567-1.27-2.836-2.836-2.836S18.501,11.511,18.501,13.077z"/>
</svg>
