<?xml version="1.0" encoding="iso-8859-1"?>
<!-- Generator: Adobe Illustrator 17.1.0, SVG Export Plug-In . SVG Version: 6.00 Build 0)  -->
<!DOCTYPE svg PUBLIC "-//W3C//DTD SVG 1.1//EN" "http://www.w3.org/Graphics/SVG/1.1/DTD/svg11.dtd">
<svg version="1.1" id="&#x30EC;&#x30A4;&#x30E4;&#x30FC;_1"
	 xmlns="http://www.w3.org/2000/svg" xmlns:xlink="http://www.w3.org/1999/xlink" x="0px" y="0px" viewBox="0 0 36 36"
	 style="enable-background:new 0 0 36 36;" xml:space="preserve">
<g>
	<circle style="fill:#F0F0F0;" cx="18" cy="18.984" r="17"/>
	<g>
		<ellipse style="fill:#FFFFFF;" cx="18.006" cy="10.481" rx="9.067" ry="10.495"/>
	</g>
	<path style="fill:#89DFE5;stroke:#818181;stroke-width:2;stroke-miterlimit:10;" d="M25.049,21.092
		c-1.916,1.767-4.369,2.829-7.043,2.829s-5.128-1.062-7.043-2.829c-4.209,1.805-7.048,4.544-7.048,10.087
		c0,0.909,0.08,1.832,0.226,2.753h27.73c0.146-0.922,0.226-1.844,0.226-2.753C32.097,25.636,29.258,22.897,25.049,21.092z"/>
	<path style="fill:#BABFBD;" d="M25.175,5.795c-0.181-0.413-0.315-0.851-0.492-1.259c-0.572-1.317-2.71-1.994-3.941-2.484
		c-0.177-0.07-0.307-0.178-0.412-0.3c-0.091-0.033-0.183-0.076-0.275-0.146c-0.661-0.498-1.751-0.503-2.552-0.564
		c-0.574-0.044-1.058-0.019-1.544,0.06c-0.735,0.305-1.432,0.81-2.155,1.568c-0.418,0.438-0.775,1.004-1.004,1.611
		c-0.595,0.376-1.292,0.643-1.921,1.018c0.239,0.703,0.096,1.472-0.304,2.139c-0.007,0.018-0.026,0.051-0.055,0.097
		c-0.009,0.051-0.005,0.109,0.036,0.161c-0.09-0.114,0.032,0.099,0.082,0.204c0.146,0.304,0.45,0.614,0.726,0.829
		c0.018,0.014,0.041,0.024,0.059,0.038c0.052-0.003,0.102-0.015,0.154-0.015h0.071c0.256,0,0.483,0.043,0.696,0.104
		c0.528,0.075,1.09,0.127,1.656,0.256c0.558-0.386,1.399-0.486,1.98-0.887c0.03-0.021,0.065-0.053,0.1-0.081
		c1.157-0.325,2.205-1.236,2.707-2.268c0.018,0.004,0.035,0.011,0.053,0.016c0.142-0.981,1.725-1.283,1.998-0.142
		c0.183,0.767,1.715,1.679,2.396,1.908c0.581,0.195,1.196,0.271,1.811,0.327c0.195-0.18,0.353-0.399,0.491-0.632
		C25.485,6.823,25.421,6.355,25.175,5.795z"/>
	<g>
		<path style="fill:#818181;" d="M18.006,1.986c3.897,0,7.067,3.811,7.067,8.495c0,4.684-3.17,8.495-7.067,8.495
			s-7.067-3.811-7.067-8.495C10.938,5.797,14.109,1.986,18.006,1.986 M18.006-0.014c-5.008,0-9.067,4.699-9.067,10.495
			s4.06,10.495,9.067,10.495s9.067-4.699,9.067-10.495S23.013-0.014,18.006-0.014L18.006-0.014z"/>
	</g>
	<path style="fill:none;stroke:#818181;stroke-width:1.5;stroke-linecap:round;stroke-linejoin:round;stroke-miterlimit:10;" d="
		M24.973,8.268c-2.259,0-4.206-1.55-5.09-3.781L19.882,4.49c-0.985,2.767-3.338,4.715-6.085,4.715c-1.248,0-2.415-0.402-3.41-1.101"
		/>
</g>
</svg>
